# Wavefront OBJ file automatically generated by Tiled2Unity

# Vertices (Count = 417)
v -608 -32 0
v -640 -32 0
v -640 0 0
v -608 0 0
v -672 -32 0
v -672 0 0
v -704 -32 0
v -704 0 0
v -736 -32 0
v -736 0 0
v -416 -64 0
v -448 -64 0
v -448 -32 0
v -416 -32 0
v -480 -64 0
v -480 -32 0
v -512 -64 0
v -512 -32 0
v -544 -64 0
v -544 -32 0
v -576 -64 0
v -576 -32 0
v -608 -64 0
v -640 -64 0
v -672 -64 0
v -704 -64 0
v -736 -64 0
v -288 -96 0
v -320 -96 0
v -320 -64 0
v -288 -64 0
v -352 -96 0
v -352 -64 0
v -384 -96 0
v -384 -64 0
v -416 -96 0
v -448 -96 0
v -480 -96 0
v -512 -96 0
v -544 -96 0
v -576 -96 0
v -608 -96 0
v -640 -96 0
v -672 -96 0
v -704 -96 0
v -736 -96 0
v -160 -128 0
v -192 -128 0
v -192 -96 0
v -160 -96 0
v -224 -128 0
v -224 -96 0
v -256 -128 0
v -256 -96 0
v -288 -128 0
v -320 -128 0
v -352 -128 0
v -384 -128 0
v -416 -128 0
v -448 -128 0
v -480 -128 0
v -512 -128 0
v -544 -128 0
v -576 -128 0
v -608 -128 0
v -640 -128 0
v -672 -128 0
v -704 -128 0
v -736 -128 0
v -128 -160 0
v -160 -160 0
v -128 -128 0
v -192 -160 0
v -224 -160 0
v -256 -160 0
v -288 -160 0
v -320 -160 0
v -352 -160 0
v -384 -160 0
v -416 -160 0
v -448 -160 0
v -480 -160 0
v -512 -160 0
v -544 -160 0
v -576 -160 0
v -608 -160 0
v -640 -160 0
v -672 -160 0
v -704 -160 0
v -736 -160 0
v -128 -192 0
v -160 -192 0
v -192 -192 0
v -224 -192 0
v -256 -192 0
v -288 -192 0
v -320 -192 0
v -352 -192 0
v -384 -192 0
v -416 -192 0
v -448 -192 0
v -480 -192 0
v -512 -192 0
v -544 -192 0
v -576 -192 0
v -608 -192 0
v -640 -192 0
v -672 -192 0
v -704 -192 0
v -736 -192 0
v -128 -224 0
v -160 -224 0
v -192 -224 0
v -224 -224 0
v -256 -224 0
v -288 -224 0
v -320 -224 0
v -352 -224 0
v -384 -224 0
v -416 -224 0
v -448 -224 0
v -480 -224 0
v -512 -224 0
v -544 -224 0
v -576 -224 0
v -608 -224 0
v -640 -224 0
v -672 -224 0
v -704 -224 0
v -736 -224 0
v -128 -256 0
v -160 -256 0
v -192 -256 0
v -224 -256 0
v -256 -256 0
v -288 -256 0
v -320 -256 0
v -352 -256 0
v -384 -256 0
v -416 -256 0
v -448 -256 0
v -480 -256 0
v -512 -256 0
v -544 -256 0
v -576 -256 0
v -608 -256 0
v -640 -256 0
v -672 -256 0
v -704 -256 0
v -736 -256 0
v -128 -288 0
v -160 -288 0
v -192 -288 0
v -224 -288 0
v -256 -288 0
v -288 -288 0
v -320 -288 0
v -352 -288 0
v -384 -288 0
v -416 -288 0
v -448 -288 0
v -480 -288 0
v -512 -288 0
v -544 -288 0
v -576 -288 0
v -608 -288 0
v -640 -288 0
v -672 -288 0
v -704 -288 0
v -736 -288 0
v -128 -320 0
v -160 -320 0
v -192 -320 0
v -224 -320 0
v -256 -320 0
v -288 -320 0
v -320 -320 0
v -352 -320 0
v -384 -320 0
v -416 -320 0
v -448 -320 0
v -480 -320 0
v -512 -320 0
v -544 -320 0
v -576 -320 0
v -608 -320 0
v -640 -320 0
v -672 -320 0
v -704 -320 0
v -736 -320 0
v -128 -352 0
v -160 -352 0
v -192 -352 0
v -224 -352 0
v -256 -352 0
v -288 -352 0
v -320 -352 0
v -352 -352 0
v -384 -352 0
v -416 -352 0
v -448 -352 0
v -480 -352 0
v -512 -352 0
v -544 -352 0
v -576 -352 0
v -608 -352 0
v -640 -352 0
v -672 -352 0
v -704 -352 0
v -736 -352 0
v -128 -384 0
v -160 -384 0
v -192 -384 0
v -224 -384 0
v -256 -384 0
v -288 -384 0
v -320 -384 0
v -352 -384 0
v -384 -384 0
v -416 -384 0
v -448 -384 0
v -480 -384 0
v -512 -384 0
v -544 -384 0
v -576 -384 0
v -608 -384 0
v -640 -384 0
v -672 -384 0
v -704 -384 0
v -736 -384 0
v -128 -416 0
v -160 -416 0
v -192 -416 0
v -224 -416 0
v -256 -416 0
v -288 -416 0
v -320 -416 0
v -352 -416 0
v -384 -416 0
v -416 -416 0
v -448 -416 0
v -480 -416 0
v -512 -416 0
v -544 -416 0
v -576 -416 0
v -608 -416 0
v -640 -416 0
v -672 -416 0
v -704 -416 0
v -736 -416 0
v -128 -448 0
v -160 -448 0
v -192 -448 0
v -224 -448 0
v -256 -448 0
v -288 -448 0
v -320 -448 0
v -352 -448 0
v -384 -448 0
v -416 -448 0
v -448 -448 0
v -480 -448 0
v -512 -448 0
v -544 -448 0
v -576 -448 0
v -608 -448 0
v -640 -448 0
v -672 -448 0
v -704 -448 0
v -736 -448 0
v -384 -480 0
v -416 -480 0
v -448 -480 0
v -480 -480 0
v -512 -480 0
v -544 -480 0
v -576 -480 0
v -608 -480 0
v -640 -480 0
v -672 -480 0
v -704 -480 0
v -736 -480 0
v -384 -512 0
v -416 -512 0
v -448 -512 0
v -480 -512 0
v -512 -512 0
v -544 -512 0
v -576 -512 0
v -608 -512 0
v -640 -512 0
v -672 -512 0
v -704 -512 0
v -736 -512 0
v -384 -544 0
v -416 -544 0
v -448 -544 0
v -480 -544 0
v -512 -544 0
v -544 -544 0
v -576 -544 0
v -608 -544 0
v -640 -544 0
v -672 -544 0
v -704 -544 0
v -736 -544 0
v -384 -576 0
v -416 -576 0
v -448 -576 0
v -480 -576 0
v -512 -576 0
v -544 -576 0
v -576 -576 0
v -608 -576 0
v -640 -576 0
v -672 -576 0
v -704 -576 0
v -736 -576 0
v -384 -608 0
v -416 -608 0
v -448 -608 0
v -480 -608 0
v -512 -608 0
v -544 -608 0
v -576 -608 0
v -608 -608 0
v -640 -608 0
v -672 -608 0
v -704 -608 0
v -736 -608 0
v -384 -640 0
v -416 -640 0
v -448 -640 0
v -480 -640 0
v -512 -640 0
v -544 -640 0
v -576 -640 0
v -608 -640 0
v -640 -640 0
v -672 -640 0
v -704 -640 0
v -736 -640 0
v -384 -672 0
v -416 -672 0
v -448 -672 0
v -480 -672 0
v -512 -672 0
v -544 -672 0
v -576 -672 0
v -608 -672 0
v -640 -672 0
v -672 -672 0
v -704 -672 0
v -736 -672 0
v -384 -704 0
v -416 -704 0
v -448 -704 0
v -480 -704 0
v -512 -704 0
v -544 -704 0
v -576 -704 0
v -608 -704 0
v -640 -704 0
v -672 -704 0
v -704 -704 0
v -736 -704 0
v -384 -736 0
v -416 -736 0
v -448 -736 0
v -480 -736 0
v -512 -736 0
v -544 -736 0
v -576 -736 0
v -608 -736 0
v -640 -736 0
v -672 -736 0
v -704 -736 0
v -736 -736 0
v -384 -768 0
v -416 -768 0
v -448 -768 0
v -480 -768 0
v -512 -768 0
v -544 -768 0
v -576 -768 0
v -608 -768 0
v -640 -768 0
v -672 -768 0
v -704 -768 0
v -736 -768 0
v -436 -96 0
v -436 -76 0
v -416 -76 0
v -621 -96 0
v -621 -70 0
v -608 -70 0
v -685 -96 0
v -685 -70 0
v -672 -70 0
v -205 -160 0
v -205 -140 0
v -192 -140 0
v -603 -192 0
v -603 -96 0
v -576 -294 0
v -544 -294 0
v -429 -416 0
v -429 -390 0
v -416 -390 0
v -685 -416 0
v -685 -390 0
v -672 -390 0
v -482 -640 0
v -482 -550 0
v -448 -550 0
v -575 -640 0
v -575 -576 0

# Texture Coorindates (Count = 12)
vt 0.5024769 0.8725303
vt 0.5524682 0.8725303
vt 0.5524682 0.8978046
vt 0.5024769 0.8978046
vt 0.0001220703 0.0001220703
vt 0.9998779 0.0001220703
vt 0.9998779 0.9998779
vt 0.0001220703 0.9998779
vt 0.9641637 0.0001220703
vt 0.9641637 0.9998779
vt 0.9410544 0.0001220703
vt 0.9410544 0.9998779

# Normal
vn 0 0 -1

# Groups (Count = 18)
g mesh_[00]_[02]
f  1/1/1  2/2/1  3/3/1  4/4/1 
f  2/1/1  5/2/1  6/3/1  3/4/1 
f  5/1/1  7/2/1  8/3/1  6/4/1 
f  7/1/1  9/2/1  10/3/1  8/4/1 
f  11/1/1  12/2/1  13/3/1  14/4/1 
f  12/1/1  15/2/1  16/3/1  13/4/1 
f  15/1/1  17/2/1  18/3/1  16/4/1 
f  17/1/1  19/2/1  20/3/1  18/4/1 
f  19/1/1  21/2/1  22/3/1  20/4/1 
f  21/1/1  23/2/1  1/3/1  22/4/1 
f  26/1/1  27/2/1  9/3/1  7/4/1 
f  28/1/1  29/2/1  30/3/1  31/4/1 
f  29/1/1  32/2/1  33/3/1  30/4/1 
f  32/1/1  34/2/1  35/3/1  33/4/1 
f  34/1/1  36/2/1  11/3/1  35/4/1 
f  45/1/1  46/2/1  27/3/1  26/4/1 
f  47/1/1  48/2/1  49/3/1  50/4/1 
f  48/1/1  51/2/1  52/3/1  49/4/1 
f  51/1/1  53/2/1  54/3/1  52/4/1 
f  53/1/1  55/2/1  28/3/1  54/4/1 
f  58/1/1  59/2/1  36/3/1  34/4/1 
f  68/1/1  69/2/1  46/3/1  45/4/1 
f  70/1/1  71/2/1  47/3/1  72/4/1 
f  79/1/1  80/2/1  59/3/1  58/4/1 
f  89/1/1  90/2/1  69/3/1  68/4/1 
f  91/1/1  92/2/1  71/3/1  70/4/1 
f  109/1/1  110/2/1  90/3/1  89/4/1 
f  111/1/1  112/2/1  92/3/1  91/4/1 
f  129/1/1  130/2/1  110/3/1  109/4/1 
f  131/1/1  132/2/1  112/3/1  111/4/1 
f  149/1/1  150/2/1  130/3/1  129/4/1 
f  151/1/1  152/2/1  132/3/1  131/4/1 
f  159/1/1  160/2/1  140/3/1  139/4/1 
f  169/1/1  170/2/1  150/3/1  149/4/1 
f  171/1/1  172/2/1  152/3/1  151/4/1 
f  179/1/1  180/2/1  160/3/1  159/4/1 
f  189/1/1  190/2/1  170/3/1  169/4/1 
f  191/1/1  192/2/1  172/3/1  171/4/1 
f  199/1/1  200/2/1  180/3/1  179/4/1 
f  209/1/1  210/2/1  190/3/1  189/4/1 
f  211/1/1  212/2/1  192/3/1  191/4/1 
f  219/1/1  220/2/1  200/3/1  199/4/1 
f  229/1/1  230/2/1  210/3/1  209/4/1 
f  231/1/1  232/2/1  212/3/1  211/4/1 
f  232/1/1  233/2/1  213/3/1  212/4/1 
f  233/1/1  234/2/1  214/3/1  213/4/1 
f  234/1/1  235/2/1  215/3/1  214/4/1 
f  235/1/1  236/2/1  216/3/1  215/4/1 
f  236/1/1  237/2/1  217/3/1  216/4/1 
f  237/1/1  238/2/1  218/3/1  217/4/1 
f  238/1/1  239/2/1  219/3/1  218/4/1 
f  239/1/1  240/2/1  220/3/1  219/4/1 
f  249/1/1  250/2/1  230/3/1  229/4/1 
f  259/1/1  260/2/1  240/3/1  239/4/1 
f  269/1/1  270/2/1  250/3/1  249/4/1 
f  271/1/1  272/2/1  260/3/1  259/4/1 
f  281/1/1  282/2/1  270/3/1  269/4/1 
f  283/1/1  284/2/1  272/3/1  271/4/1 
f  293/1/1  294/2/1  282/3/1  281/4/1 
f  295/1/1  296/2/1  284/3/1  283/4/1 
f  305/1/1  306/2/1  294/3/1  293/4/1 
f  307/1/1  308/2/1  296/3/1  295/4/1 
f  317/1/1  318/2/1  306/3/1  305/4/1 
f  319/1/1  320/2/1  308/3/1  307/4/1 
f  329/1/1  330/2/1  318/3/1  317/4/1 
f  331/1/1  332/2/1  320/3/1  319/4/1 
f  341/1/1  342/2/1  330/3/1  329/4/1 
f  343/1/1  344/2/1  332/3/1  331/4/1 
f  353/1/1  354/2/1  342/3/1  341/4/1 
f  355/1/1  356/2/1  344/3/1  343/4/1 
f  365/1/1  366/2/1  354/3/1  353/4/1 
f  367/1/1  368/2/1  356/3/1  355/4/1 
f  368/1/1  369/2/1  357/3/1  356/4/1 
f  369/1/1  370/2/1  358/3/1  357/4/1 
f  370/1/1  371/2/1  359/3/1  358/4/1 
f  371/1/1  372/2/1  360/3/1  359/4/1 
f  372/1/1  373/2/1  361/3/1  360/4/1 
f  373/1/1  374/2/1  362/3/1  361/4/1 
f  374/1/1  375/2/1  363/3/1  362/4/1 
f  375/1/1  376/2/1  364/3/1  363/4/1 
f  376/1/1  377/2/1  365/3/1  364/4/1 
f  377/1/1  378/2/1  366/3/1  365/4/1 
g mesh_[00]_[01]
f  23/5/1  24/6/1  2/7/1  1/8/1 
f  25/5/1  26/6/1  7/7/1  5/8/1 
f  36/5/1  37/6/1  12/7/1  11/8/1 
f  37/5/1  38/6/1  15/7/1  12/8/1 
f  38/5/1  39/6/1  17/7/1  15/8/1 
f  39/5/1  40/6/1  19/7/1  17/8/1 
f  40/5/1  41/6/1  21/7/1  19/8/1 
f  41/5/1  42/6/1  23/7/1  21/8/1 
f  55/5/1  56/6/1  29/7/1  28/8/1 
f  56/5/1  57/6/1  32/7/1  29/8/1 
f  57/5/1  58/6/1  34/7/1  32/8/1 
f  71/5/1  73/6/1  48/7/1  47/8/1 
f  73/5/1  74/6/1  51/7/1  48/8/1 
f  74/5/1  75/6/1  53/7/1  51/8/1 
f  75/5/1  76/6/1  55/7/1  53/8/1 
f  99/5/1  100/6/1  80/7/1  79/8/1 
f  251/5/1  252/6/1  232/7/1  231/8/1 
f  252/5/1  253/6/1  233/7/1  232/8/1 
f  253/5/1  254/6/1  234/7/1  233/8/1 
f  254/5/1  255/6/1  235/7/1  234/8/1 
f  255/5/1  256/6/1  236/7/1  235/8/1 
f  256/5/1  257/6/1  237/7/1  236/8/1 
f  257/5/1  258/6/1  238/7/1  237/8/1 
f  258/5/1  259/6/1  239/7/1  238/8/1 
f  379/5/1  380/6/1  368/7/1  367/8/1 
f  380/5/1  381/6/1  369/7/1  368/8/1 
f  381/5/1  382/6/1  370/7/1  369/8/1 
f  382/5/1  383/6/1  371/7/1  370/8/1 
f  383/5/1  384/6/1  372/7/1  371/8/1 
f  384/5/1  385/6/1  373/7/1  372/8/1 
f  385/5/1  386/6/1  374/7/1  373/8/1 
f  387/5/1  388/6/1  376/7/1  375/8/1 
f  388/5/1  389/6/1  377/7/1  376/8/1 
f  389/5/1  390/6/1  378/7/1  377/8/1 
g mesh_[00]_[03]
f  24/5/1  25/6/1  5/7/1  2/8/1 
f  386/5/1  387/6/1  375/7/1  374/8/1 
g mesh_[00]_[00]
f  42/5/1  43/6/1  24/7/1  23/8/1 
f  43/5/1  44/6/1  25/7/1  24/8/1 
f  44/5/1  45/6/1  26/7/1  25/8/1 
f  59/5/1  60/6/1  37/7/1  36/8/1 
f  60/5/1  61/6/1  38/7/1  37/8/1 
f  61/5/1  62/6/1  39/7/1  38/8/1 
f  62/5/1  63/6/1  40/7/1  39/8/1 
f  63/5/1  64/6/1  41/7/1  40/8/1 
f  64/5/1  65/6/1  42/7/1  41/8/1 
f  65/5/1  66/6/1  43/7/1  42/8/1 
f  66/5/1  67/6/1  44/7/1  43/8/1 
f  67/5/1  68/6/1  45/7/1  44/8/1 
f  76/5/1  77/6/1  56/7/1  55/8/1 
f  77/5/1  78/6/1  57/7/1  56/8/1 
f  78/5/1  79/6/1  58/7/1  57/8/1 
f  80/5/1  81/6/1  60/7/1  59/8/1 
f  81/5/1  82/6/1  61/7/1  60/8/1 
f  82/5/1  83/6/1  62/7/1  61/8/1 
f  83/5/1  84/6/1  63/7/1  62/8/1 
f  84/5/1  85/6/1  64/7/1  63/8/1 
f  85/5/1  86/6/1  65/7/1  64/8/1 
f  86/5/1  87/6/1  66/7/1  65/8/1 
f  87/5/1  88/6/1  67/7/1  66/8/1 
f  88/5/1  89/6/1  68/7/1  67/8/1 
f  92/5/1  93/6/1  73/7/1  71/8/1 
f  93/5/1  94/6/1  74/7/1  73/8/1 
f  94/5/1  95/6/1  75/7/1  74/8/1 
f  95/5/1  96/6/1  76/7/1  75/8/1 
f  96/5/1  97/6/1  77/7/1  76/8/1 
f  97/5/1  98/6/1  78/7/1  77/8/1 
f  98/5/1  99/6/1  79/7/1  78/8/1 
f  100/5/1  101/6/1  81/7/1  80/8/1 
f  101/5/1  102/6/1  82/7/1  81/8/1 
f  102/5/1  103/6/1  83/7/1  82/8/1 
f  103/5/1  104/6/1  84/7/1  83/8/1 
f  104/5/1  105/6/1  85/7/1  84/8/1 
f  105/5/1  106/6/1  86/7/1  85/8/1 
f  106/5/1  107/6/1  87/7/1  86/8/1 
f  107/5/1  108/6/1  88/7/1  87/8/1 
f  108/5/1  109/6/1  89/7/1  88/8/1 
f  112/5/1  113/6/1  93/7/1  92/8/1 
f  113/5/1  114/6/1  94/7/1  93/8/1 
f  114/5/1  115/6/1  95/7/1  94/8/1 
f  115/5/1  116/6/1  96/7/1  95/8/1 
f  116/5/1  117/6/1  97/7/1  96/8/1 
f  117/5/1  118/6/1  98/7/1  97/8/1 
f  118/5/1  119/6/1  99/7/1  98/8/1 
f  119/5/1  120/6/1  100/7/1  99/8/1 
f  120/5/1  121/6/1  101/7/1  100/8/1 
f  121/5/1  122/6/1  102/7/1  101/8/1 
f  122/5/1  123/6/1  103/7/1  102/8/1 
f  123/5/1  124/6/1  104/7/1  103/8/1 
f  124/5/1  125/6/1  105/7/1  104/8/1 
f  125/5/1  126/6/1  106/7/1  105/8/1 
f  126/5/1  127/6/1  107/7/1  106/8/1 
f  127/5/1  128/6/1  108/7/1  107/8/1 
f  128/5/1  129/6/1  109/7/1  108/8/1 
f  132/5/1  133/6/1  113/7/1  112/8/1 
f  133/5/1  134/6/1  114/7/1  113/8/1 
f  134/5/1  135/6/1  115/7/1  114/8/1 
f  135/5/1  136/6/1  116/7/1  115/8/1 
f  136/5/1  137/6/1  117/7/1  116/8/1 
f  137/5/1  138/6/1  118/7/1  117/8/1 
f  138/5/1  139/6/1  119/7/1  118/8/1 
f  139/5/1  140/6/1  120/7/1  119/8/1 
f  140/5/1  141/6/1  121/7/1  120/8/1 
f  141/5/1  142/6/1  122/7/1  121/8/1 
f  142/5/1  143/6/1  123/7/1  122/8/1 
f  143/5/1  144/6/1  124/7/1  123/8/1 
f  144/5/1  145/6/1  125/7/1  124/8/1 
f  145/5/1  146/6/1  126/7/1  125/8/1 
f  146/5/1  147/6/1  127/7/1  126/8/1 
f  147/5/1  148/6/1  128/7/1  127/8/1 
f  148/5/1  149/6/1  129/7/1  128/8/1 
f  152/5/1  153/6/1  133/7/1  132/8/1 
f  153/5/1  154/6/1  134/7/1  133/8/1 
f  154/5/1  155/6/1  135/7/1  134/8/1 
f  155/5/1  156/6/1  136/7/1  135/8/1 
f  156/5/1  157/6/1  137/7/1  136/8/1 
f  157/5/1  158/6/1  138/7/1  137/8/1 
f  158/5/1  159/6/1  139/7/1  138/8/1 
f  160/5/1  161/6/1  141/7/1  140/8/1 
f  161/5/1  162/6/1  142/7/1  141/8/1 
f  162/5/1  163/6/1  143/7/1  142/8/1 
f  163/5/1  164/6/1  144/7/1  143/8/1 
f  164/5/1  165/6/1  145/7/1  144/8/1 
f  165/5/1  166/6/1  146/7/1  145/8/1 
f  166/5/1  167/6/1  147/7/1  146/8/1 
f  167/5/1  168/6/1  148/7/1  147/8/1 
f  168/5/1  169/6/1  149/7/1  148/8/1 
f  172/5/1  173/6/1  153/7/1  152/8/1 
f  173/5/1  174/6/1  154/7/1  153/8/1 
f  174/5/1  175/6/1  155/7/1  154/8/1 
f  175/5/1  176/6/1  156/7/1  155/8/1 
f  176/5/1  177/6/1  157/7/1  156/8/1 
f  177/5/1  178/6/1  158/7/1  157/8/1 
f  178/5/1  179/6/1  159/7/1  158/8/1 
f  180/5/1  181/6/1  161/7/1  160/8/1 
f  181/5/1  182/6/1  162/7/1  161/8/1 
f  182/5/1  183/6/1  163/7/1  162/8/1 
f  183/5/1  184/6/1  164/7/1  163/8/1 
f  184/5/1  185/6/1  165/7/1  164/8/1 
f  185/5/1  186/6/1  166/7/1  165/8/1 
f  186/5/1  187/6/1  167/7/1  166/8/1 
f  187/5/1  188/6/1  168/7/1  167/8/1 
f  188/5/1  189/6/1  169/7/1  168/8/1 
f  192/5/1  193/6/1  173/7/1  172/8/1 
f  193/5/1  194/6/1  174/7/1  173/8/1 
f  194/5/1  195/6/1  175/7/1  174/8/1 
f  195/5/1  196/6/1  176/7/1  175/8/1 
f  196/5/1  197/6/1  177/7/1  176/8/1 
f  197/5/1  198/6/1  178/7/1  177/8/1 
f  198/5/1  199/6/1  179/7/1  178/8/1 
f  200/5/1  201/6/1  181/7/1  180/8/1 
f  201/5/1  202/6/1  182/7/1  181/8/1 
f  202/5/1  203/6/1  183/7/1  182/8/1 
f  203/5/1  204/6/1  184/7/1  183/8/1 
f  204/5/1  205/6/1  185/7/1  184/8/1 
f  205/5/1  206/6/1  186/7/1  185/8/1 
f  206/5/1  207/6/1  187/7/1  186/8/1 
f  207/5/1  208/6/1  188/7/1  187/8/1 
f  208/5/1  209/6/1  189/7/1  188/8/1 
f  212/5/1  213/6/1  193/7/1  192/8/1 
f  213/5/1  214/6/1  194/7/1  193/8/1 
f  214/5/1  215/6/1  195/7/1  194/8/1 
f  215/5/1  216/6/1  196/7/1  195/8/1 
f  216/5/1  217/6/1  197/7/1  196/8/1 
f  217/5/1  218/6/1  198/7/1  197/8/1 
f  218/5/1  219/6/1  199/7/1  198/8/1 
f  220/5/1  221/6/1  201/7/1  200/8/1 
f  221/5/1  222/6/1  202/7/1  201/8/1 
f  222/5/1  223/6/1  203/7/1  202/8/1 
f  223/5/1  224/6/1  204/7/1  203/8/1 
f  224/5/1  225/6/1  205/7/1  204/8/1 
f  225/5/1  226/6/1  206/7/1  205/8/1 
f  226/5/1  227/6/1  207/7/1  206/8/1 
f  227/5/1  228/6/1  208/7/1  207/8/1 
f  228/5/1  229/6/1  209/7/1  208/8/1 
f  240/5/1  241/6/1  221/7/1  220/8/1 
f  241/5/1  242/6/1  222/7/1  221/8/1 
f  242/5/1  243/6/1  223/7/1  222/8/1 
f  243/5/1  244/6/1  224/7/1  223/8/1 
f  244/5/1  245/6/1  225/7/1  224/8/1 
f  245/5/1  246/6/1  226/7/1  225/8/1 
f  246/5/1  247/6/1  227/7/1  226/8/1 
f  247/5/1  248/6/1  228/7/1  227/8/1 
f  248/5/1  249/6/1  229/7/1  228/8/1 
f  260/5/1  261/6/1  241/7/1  240/8/1 
f  261/5/1  262/6/1  242/7/1  241/8/1 
f  262/5/1  263/6/1  243/7/1  242/8/1 
f  263/5/1  264/6/1  244/7/1  243/8/1 
f  264/5/1  265/6/1  245/7/1  244/8/1 
f  265/5/1  266/6/1  246/7/1  245/8/1 
f  266/5/1  267/6/1  247/7/1  246/8/1 
f  267/5/1  268/6/1  248/7/1  247/8/1 
f  268/5/1  269/6/1  249/7/1  248/8/1 
f  272/5/1  273/6/1  261/7/1  260/8/1 
f  273/5/1  274/6/1  262/7/1  261/8/1 
f  274/5/1  275/6/1  263/7/1  262/8/1 
f  275/5/1  276/6/1  264/7/1  263/8/1 
f  276/5/1  277/6/1  265/7/1  264/8/1 
f  277/5/1  278/6/1  266/7/1  265/8/1 
f  278/5/1  279/6/1  267/7/1  266/8/1 
f  279/5/1  280/6/1  268/7/1  267/8/1 
f  280/5/1  281/6/1  269/7/1  268/8/1 
f  284/5/1  285/6/1  273/7/1  272/8/1 
f  285/5/1  286/6/1  274/7/1  273/8/1 
f  286/5/1  287/6/1  275/7/1  274/8/1 
f  287/5/1  288/6/1  276/7/1  275/8/1 
f  288/5/1  289/6/1  277/7/1  276/8/1 
f  289/5/1  290/6/1  278/7/1  277/8/1 
f  290/5/1  291/6/1  279/7/1  278/8/1 
f  291/5/1  292/6/1  280/7/1  279/8/1 
f  292/5/1  293/6/1  281/7/1  280/8/1 
f  296/5/1  297/6/1  285/7/1  284/8/1 
f  297/5/1  298/6/1  286/7/1  285/8/1 
f  298/5/1  299/6/1  287/7/1  286/8/1 
f  299/5/1  300/6/1  288/7/1  287/8/1 
f  300/5/1  301/6/1  289/7/1  288/8/1 
f  301/5/1  302/6/1  290/7/1  289/8/1 
f  302/5/1  303/6/1  291/7/1  290/8/1 
f  303/5/1  304/6/1  292/7/1  291/8/1 
f  304/5/1  305/6/1  293/7/1  292/8/1 
f  308/5/1  309/6/1  297/7/1  296/8/1 
f  309/5/1  310/6/1  298/7/1  297/8/1 
f  310/5/1  311/6/1  299/7/1  298/8/1 
f  311/5/1  312/6/1  300/7/1  299/8/1 
f  312/5/1  313/6/1  301/7/1  300/8/1 
f  313/5/1  314/6/1  302/7/1  301/8/1 
f  314/5/1  315/6/1  303/7/1  302/8/1 
f  315/5/1  316/6/1  304/7/1  303/8/1 
f  316/5/1  317/6/1  305/7/1  304/8/1 
f  320/5/1  321/6/1  309/7/1  308/8/1 
f  321/5/1  322/6/1  310/7/1  309/8/1 
f  322/5/1  323/6/1  311/7/1  310/8/1 
f  323/5/1  324/6/1  312/7/1  311/8/1 
f  324/5/1  325/6/1  313/7/1  312/8/1 
f  325/5/1  326/6/1  314/7/1  313/8/1 
f  326/5/1  327/6/1  315/7/1  314/8/1 
f  327/5/1  328/6/1  316/7/1  315/8/1 
f  328/5/1  329/6/1  317/7/1  316/8/1 
f  332/5/1  333/6/1  321/7/1  320/8/1 
f  333/5/1  334/6/1  322/7/1  321/8/1 
f  334/5/1  335/6/1  323/7/1  322/8/1 
f  335/5/1  336/6/1  324/7/1  323/8/1 
f  336/5/1  337/6/1  325/7/1  324/8/1 
f  337/5/1  338/6/1  326/7/1  325/8/1 
f  338/5/1  339/6/1  327/7/1  326/8/1 
f  339/5/1  340/6/1  328/7/1  327/8/1 
f  340/5/1  341/6/1  329/7/1  328/8/1 
f  344/5/1  345/6/1  333/7/1  332/8/1 
f  345/5/1  346/6/1  334/7/1  333/8/1 
f  346/5/1  347/6/1  335/7/1  334/8/1 
f  347/5/1  348/6/1  336/7/1  335/8/1 
f  348/5/1  349/6/1  337/7/1  336/8/1 
f  349/5/1  350/6/1  338/7/1  337/8/1 
f  350/5/1  351/6/1  339/7/1  338/8/1 
f  351/5/1  352/6/1  340/7/1  339/8/1 
f  352/5/1  353/6/1  341/7/1  340/8/1 
f  356/5/1  357/6/1  345/7/1  344/8/1 
f  357/5/1  358/6/1  346/7/1  345/8/1 
f  358/5/1  359/6/1  347/7/1  346/8/1 
f  359/5/1  360/6/1  348/7/1  347/8/1 
f  360/5/1  361/6/1  349/7/1  348/8/1 
f  361/5/1  362/6/1  350/7/1  349/8/1 
f  362/5/1  363/6/1  351/7/1  350/8/1 
f  363/5/1  364/6/1  352/7/1  351/8/1 
f  364/5/1  365/6/1  353/7/1  352/8/1 
g mesh_[01]_[10]
f  36/5/1  391/6/1  392/7/1  393/8/1 
g mesh_[01]_[14]
f  42/5/1  394/6/1  395/7/1  396/8/1 
f  44/5/1  397/6/1  398/7/1  399/8/1 
f  240/5/1  407/6/1  408/7/1  409/8/1 
f  248/5/1  410/6/1  411/7/1  412/8/1 
g mesh_[01]_[07]
f  61/5/1  64/6/1  41/7/1  38/8/1 
g mesh_[01]_[17]
f  73/5/1  400/6/1  401/7/1  402/8/1 
g mesh_[01]_[08]
f  77/5/1  78/6/1  32/7/1  29/8/1 
g mesh_[01]_[09]
f  78/5/1  79/6/1  34/7/1  32/8/1 
g mesh_[01]_[06]
f  94/5/1  96/6/1  55/7/1  51/8/1 
g mesh_[01]_[11]
f  105/5/1  403/9/1  404/10/1  41/8/1 
g mesh_[01]_[04]
f  192/5/1  193/6/1  153/7/1  152/8/1 
f  193/5/1  194/6/1  154/7/1  153/8/1 
g mesh_[01]_[05]
f  194/5/1  197/6/1  117/7/1  114/8/1 
g mesh_[01]_[16]
f  202/5/1  203/6/1  183/7/1  182/8/1 
f  206/5/1  207/6/1  187/7/1  186/8/1 
g mesh_[01]_[15]
f  224/5/1  225/11/1  405/12/1  406/8/1 
g mesh_[01]_[12]
f  333/5/1  413/6/1  414/7/1  415/8/1 
g mesh_[01]_[13]
f  335/5/1  416/6/1  417/7/1  311/8/1 
